<svg width="260" height="128" viewBox="0 0 260 128" fill="none" xmlns="http://www.w3.org/2000/svg">
<path d="M0 101.706V90.02L47.6184 8.39943V30.311L12.8552 90.02H47.6184V101.706H0ZM56.3092 128V0H68.8022V90.02H78.5794V101.706H68.8022V128H56.3092Z" fill="#463E3E"/>
<path d="M125.474 128V116.131C120.042 115.644 115.334 111.566 111.351 103.897C106.643 94.6457 104.29 82.0466 104.29 66.0999V57.1526C104.531 39.3799 108.394 26.2939 115.877 17.8944C119.136 14.486 122.396 12.5991 125.655 12.234V0.365193C114.188 0.852116 105.436 7.60818 99.4011 20.6334C94.4522 31.4674 91.9777 45.8317 91.9777 63.7261C91.9777 97.0804 99.4615 117.592 114.429 125.261C117.929 126.965 121.611 127.878 125.474 128ZM136.337 128C147.683 127.635 156.314 121.061 162.228 108.28C167.298 97.3238 169.833 82.4727 169.833 63.7261C169.833 32.9282 162.953 13.1469 149.192 4.38231C145.088 1.94769 140.743 0.608654 136.156 0.365193V12.234C141.588 12.7209 146.416 16.9206 150.641 24.8331C155.348 33.476 157.702 44.2492 157.702 57.1526V66.0999C157.702 93.9762 151.727 110.349 139.777 115.218C138.691 115.583 137.544 115.888 136.337 116.131V128Z" fill="#463E3E"/>
<path d="M181.421 101.706V90.02L229.039 8.39943V30.311L194.276 90.02H229.039V101.706H181.421ZM237.73 128V0H250.223V90.02H260V101.706H250.223V128H237.73Z" fill="#463E3E"/>
</svg>
