<svg width="18" height="11" viewBox="0 0 18 11" fill="none" xmlns="http://www.w3.org/2000/svg">
<path fill-rule="evenodd" clip-rule="evenodd" d="M8.22783 9.87822L1.12178 2.77529L1.12151 2.77502C1.01962 2.67394 0.938736 2.5537 0.883522 2.42123C0.828259 2.28864 0.799805 2.14642 0.799805 2.00278C0.799805 1.85913 0.828259 1.71692 0.883522 1.58432C0.938786 1.45173 1.01977 1.3314 1.12178 1.23026C1.22348 1.12943 1.34409 1.04966 1.4767 0.995519C1.60894 0.941527 1.75052 0.914088 1.89336 0.914762C2.03619 0.914088 2.17777 0.941527 2.31002 0.995519C2.44262 1.04966 2.56323 1.12943 2.66493 1.23026L2.66561 1.23093L9.00056 7.57179L15.3355 1.23093L15.3356 1.23084C15.5404 1.02612 15.8182 0.911133 16.1078 0.911133C16.3974 0.911133 16.6751 1.02612 16.8799 1.23084C17.0847 1.43555 17.1998 1.71323 17.1998 2.00278C17.1998 2.29233 17.0847 2.57 16.8799 2.77472L9.7733 9.87822L9.77301 9.87851C9.67188 9.98035 9.55161 10.0612 9.41911 10.1164C9.28648 10.1716 9.14423 10.2 9.00056 10.2C8.85689 10.2 8.71464 10.1716 8.58202 10.1164C8.44952 10.0612 8.32924 9.98035 8.22812 9.87851L8.22783 9.87822Z" fill="#463E3E"/>
</svg>
