<svg width="66" height="14" viewBox="0 0 66 14" fill="none" xmlns="http://www.w3.org/2000/svg">
<path d="M5.98328 0V1.3605H1.66771V4.35946H5.03239V5.71996H1.66771V10.1672H0V0H5.98328Z" fill="black"/>
<path d="M9.19652 3.27691C9.44034 2.86729 9.76218 2.55033 10.162 2.32602C10.5717 2.09195 11.0544 1.97492 11.6103 1.97492V3.70115H11.1861C10.5326 3.70115 10.0353 3.86695 9.69391 4.19854C9.36232 4.53013 9.19652 5.10554 9.19652 5.92476V10.1672H7.52882V2.10658H9.19652V3.27691Z" fill="black"/>
<path d="M16.6396 10.2988C15.8789 10.2988 15.1913 10.1282 14.5769 9.78683C13.9625 9.43573 13.4798 8.9481 13.1287 8.32393C12.7776 7.69 12.602 6.95855 12.602 6.12957C12.602 5.31034 12.7824 4.58377 13.1433 3.94984C13.5041 3.31592 13.9966 2.82828 14.6208 2.48694C15.245 2.14559 15.9423 1.97492 16.7128 1.97492C17.4832 1.97492 18.1805 2.14559 18.8047 2.48694C19.4289 2.82828 19.9214 3.31592 20.2823 3.94984C20.6431 4.58377 20.8235 5.31034 20.8235 6.12957C20.8235 6.9488 20.6382 7.67537 20.2676 8.3093C19.897 8.94322 19.3899 9.43573 18.7462 9.78683C18.1123 10.1282 17.4101 10.2988 16.6396 10.2988ZM16.6396 8.85057C17.0687 8.85057 17.4686 8.74817 17.8392 8.54336C18.2196 8.33856 18.5268 8.03135 18.7608 7.62173C18.9949 7.21212 19.1119 6.71473 19.1119 6.12957C19.1119 5.54441 18.9998 5.0519 18.7755 4.65204C18.5512 4.24242 18.2537 3.93521 17.8831 3.73041C17.5125 3.5256 17.1126 3.4232 16.6835 3.4232C16.2544 3.4232 15.8545 3.5256 15.4839 3.73041C15.1231 3.93521 14.8354 4.24242 14.6208 4.65204C14.4063 5.0519 14.299 5.54441 14.299 6.12957C14.299 6.99756 14.5184 7.6705 14.9573 8.14838C15.4059 8.61651 15.9667 8.85057 16.6396 8.85057Z" fill="black"/>
<path d="M26.539 1.97492C27.173 1.97492 27.7386 2.10658 28.236 2.36991C28.7431 2.63323 29.1381 3.02334 29.4209 3.54023C29.7038 4.05712 29.8452 4.6813 29.8452 5.41275V10.1672H28.1921V5.66144C28.1921 4.93974 28.0117 4.38871 27.6508 4.00836C27.29 3.61825 26.7975 3.4232 26.1733 3.4232C25.5491 3.4232 25.0517 3.61825 24.6811 4.00836C24.3203 4.38871 24.1399 4.93974 24.1399 5.66144V10.1672H22.4722V2.10658H24.1399V3.02821C24.4129 2.69662 24.7592 2.43818 25.1785 2.25287C25.6076 2.06757 26.0611 1.97492 26.539 1.97492Z" fill="black"/>
<path d="M33.9181 3.46708V7.92894C33.9181 8.23128 33.9864 8.45071 34.1229 8.58725C34.2692 8.71404 34.513 8.77743 34.8544 8.77743H35.8784V10.1672H34.5618C33.8108 10.1672 33.2354 9.99164 32.8356 9.64054C32.4357 9.28944 32.2358 8.71891 32.2358 7.92894V3.46708H31.2849V2.10658H32.2358V0.102403H33.9181V2.10658H35.8784V3.46708H33.9181Z" fill="black"/>
<path d="M36.8596 6.10031C36.8596 5.29084 37.0254 4.57402 37.357 3.94984C37.6983 3.32567 38.1567 2.84291 38.7321 2.50157C39.3173 2.15047 39.9609 1.97492 40.6631 1.97492C41.2971 1.97492 41.8481 2.10171 42.3162 2.35528C42.7941 2.59909 43.1745 2.9063 43.4573 3.27691V2.10658H45.1396V10.1672H43.4573V8.96761C43.1745 9.34796 42.7892 9.66492 42.3016 9.91849C41.814 10.1721 41.2581 10.2988 40.6339 10.2988C39.9414 10.2988 39.3075 10.1233 38.7321 9.7722C38.1567 9.41136 37.6983 8.91397 37.357 8.28004C37.0254 7.63636 36.8596 6.90979 36.8596 6.10031ZM43.4573 6.12957C43.4573 5.57367 43.3403 5.09091 43.1062 4.6813C42.8819 4.27168 42.5844 3.9596 42.2138 3.74504C41.8432 3.53048 41.4434 3.4232 41.0142 3.4232C40.5851 3.4232 40.1853 3.53048 39.8147 3.74504C39.4441 3.94984 39.1417 4.25705 38.9077 4.66667C38.6833 5.06653 38.5712 5.54441 38.5712 6.10031C38.5712 6.65622 38.6833 7.14385 38.9077 7.56322C39.1417 7.98258 39.4441 8.30442 39.8147 8.52874C40.195 8.74329 40.5949 8.85057 41.0142 8.85057C41.4434 8.85057 41.8432 8.74329 42.2138 8.52874C42.5844 8.31418 42.8819 8.00209 43.1062 7.59248C43.3403 7.17311 43.4573 6.68548 43.4573 6.12957Z" fill="black"/>
<path d="M48.9978 3.29154C49.2806 2.92093 49.6659 2.60885 50.1535 2.35528C50.6411 2.10171 51.1922 1.97492 51.8066 1.97492C52.5088 1.97492 53.1476 2.15047 53.723 2.50157C54.3082 2.84291 54.7665 3.32567 55.0981 3.94984C55.4297 4.57402 55.5955 5.29084 55.5955 6.10031C55.5955 6.90979 55.4297 7.63636 55.0981 8.28004C54.7665 8.91397 54.3082 9.41136 53.723 9.7722C53.1476 10.1233 52.5088 10.2988 51.8066 10.2988C51.1922 10.2988 50.646 10.1769 50.1681 9.93312C49.6903 9.67955 49.3001 9.36747 48.9978 8.99686V14H47.3301V2.10658H48.9978V3.29154ZM53.8985 6.10031C53.8985 5.54441 53.7815 5.06653 53.5474 4.66667C53.3231 4.25705 53.0208 3.94984 52.6404 3.74504C52.2698 3.53048 51.87 3.4232 51.4409 3.4232C51.0215 3.4232 50.6216 3.53048 50.2413 3.74504C49.8707 3.9596 49.5683 4.27168 49.3343 4.6813C49.11 5.09091 48.9978 5.57367 48.9978 6.12957C48.9978 6.68548 49.11 7.17311 49.3343 7.59248C49.5683 8.00209 49.8707 8.31418 50.2413 8.52874C50.6216 8.74329 51.0215 8.85057 51.4409 8.85057C51.87 8.85057 52.2698 8.74329 52.6404 8.52874C53.0208 8.30442 53.3231 7.98258 53.5474 7.56322C53.7815 7.14385 53.8985 6.65622 53.8985 6.10031Z" fill="black"/>
<path d="M58.9124 3.29154C59.1952 2.92093 59.5805 2.60885 60.0681 2.35528C60.5558 2.10171 61.1068 1.97492 61.7212 1.97492C62.4234 1.97492 63.0622 2.15047 63.6376 2.50157C64.2228 2.84291 64.6811 3.32567 65.0127 3.94984C65.3443 4.57402 65.5101 5.29084 65.5101 6.10031C65.5101 6.90979 65.3443 7.63636 65.0127 8.28004C64.6811 8.91397 64.2228 9.41136 63.6376 9.7722C63.0622 10.1233 62.4234 10.2988 61.7212 10.2988C61.1068 10.2988 60.5606 10.1769 60.0827 9.93312C59.6049 9.67955 59.2148 9.36747 58.9124 8.99686V14H57.2447V2.10658H58.9124V3.29154ZM63.8132 6.10031C63.8132 5.54441 63.6961 5.06653 63.462 4.66667C63.2377 4.25705 62.9354 3.94984 62.555 3.74504C62.1844 3.53048 61.7846 3.4232 61.3555 3.4232C60.9361 3.4232 60.5362 3.53048 60.1559 3.74504C59.7853 3.9596 59.4829 4.27168 59.2489 4.6813C59.0246 5.09091 58.9124 5.57367 58.9124 6.12957C58.9124 6.68548 59.0246 7.17311 59.2489 7.59248C59.4829 8.00209 59.7853 8.31418 60.1559 8.52874C60.5362 8.74329 60.9361 8.85057 61.3555 8.85057C61.7846 8.85057 62.1844 8.74329 62.555 8.52874C62.9354 8.30442 63.2377 7.98258 63.462 7.56322C63.6961 7.14385 63.8132 6.65622 63.8132 6.10031Z" fill="black"/>
</svg>
