<svg width="171" height="22" viewBox="0 0 171 22" fill="none" xmlns="http://www.w3.org/2000/svg">
<path d="M5.644 0.209999C7.272 0.209999 8.69467 0.525332 9.912 1.156C11.144 1.772 12.09 2.66667 12.75 3.84C13.4247 4.99867 13.762 6.35533 13.762 7.91C13.762 9.46467 13.4247 10.814 12.75 11.958C12.09 13.102 11.144 13.982 9.912 14.598C8.69467 15.1993 7.272 15.5 5.644 15.5H0.65V0.209999H5.644ZM5.644 13.454C7.43333 13.454 8.80467 12.97 9.758 12.002C10.7113 11.034 11.188 9.67 11.188 7.91C11.188 6.13533 10.7113 4.74933 9.758 3.752C8.80467 2.75467 7.43333 2.256 5.644 2.256H3.158V13.454H5.644ZM27.3577 9.142C27.3577 9.59667 27.3283 10.0073 27.2697 10.374H18.0077C18.081 11.342 18.4403 12.1193 19.0857 12.706C19.731 13.2927 20.523 13.586 21.4617 13.586C22.811 13.586 23.7643 13.0213 24.3217 11.892H27.0277C26.661 13.0067 25.9937 13.9233 25.0257 14.642C24.0723 15.346 22.8843 15.698 21.4617 15.698C20.303 15.698 19.2617 15.4413 18.3377 14.928C17.4283 14.4 16.7097 13.6667 16.1817 12.728C15.6683 11.7747 15.4117 10.6747 15.4117 9.428C15.4117 8.18133 15.661 7.08867 16.1597 6.15C16.673 5.19667 17.3843 4.46333 18.2937 3.95C19.2177 3.43667 20.2737 3.18 21.4617 3.18C22.6057 3.18 23.625 3.42933 24.5197 3.928C25.4143 4.42667 26.111 5.13067 26.6097 6.04C27.1083 6.93467 27.3577 7.96867 27.3577 9.142ZM24.7397 8.35C24.725 7.426 24.395 6.68533 23.7497 6.128C23.1043 5.57067 22.305 5.292 21.3517 5.292C20.4863 5.292 19.7457 5.57067 19.1297 6.128C18.5137 6.67067 18.147 7.41133 18.0297 8.35H24.7397ZM44.4998 3.18C45.4531 3.18 46.3038 3.378 47.0518 3.774C47.8144 4.17 48.4084 4.75667 48.8338 5.534C49.2738 6.31133 49.4938 7.25 49.4938 8.35V15.5H47.0078V8.724C47.0078 7.63867 46.7364 6.81 46.1938 6.238C45.6511 5.65133 44.9104 5.358 43.9718 5.358C43.0331 5.358 42.2851 5.65133 41.7278 6.238C41.1851 6.81 40.9138 7.63867 40.9138 8.724V15.5H38.4278V8.724C38.4278 7.63867 38.1564 6.81 37.6138 6.238C37.0711 5.65133 36.3304 5.358 35.3918 5.358C34.4531 5.358 33.7051 5.65133 33.1478 6.238C32.6051 6.81 32.3338 7.63867 32.3338 8.724V15.5H29.8258V3.378H32.3338V4.764C32.7444 4.26533 33.2651 3.87667 33.8958 3.598C34.5264 3.31933 35.2011 3.18 35.9198 3.18C36.8878 3.18 37.7531 3.38533 38.5158 3.796C39.2784 4.20667 39.8651 4.80067 40.2758 5.578C40.6424 4.84467 41.2144 4.26533 41.9918 3.84C42.7691 3.4 43.6051 3.18 44.4998 3.18ZM57.9432 15.698C56.7992 15.698 55.7652 15.4413 54.8412 14.928C53.9172 14.4 53.1912 13.6667 52.6632 12.728C52.1352 11.7747 51.8712 10.6747 51.8712 9.428C51.8712 8.196 52.1425 7.10333 52.6852 6.15C53.2278 5.19667 53.9685 4.46333 54.9072 3.95C55.8458 3.43667 56.8945 3.18 58.0532 3.18C59.2118 3.18 60.2605 3.43667 61.1992 3.95C62.1378 4.46333 62.8785 5.19667 63.4212 6.15C63.9638 7.10333 64.2352 8.196 64.2352 9.428C64.2352 10.66 63.9565 11.7527 63.3992 12.706C62.8418 13.6593 62.0792 14.4 61.1112 14.928C60.1578 15.4413 59.1018 15.698 57.9432 15.698ZM57.9432 13.52C58.5885 13.52 59.1898 13.366 59.7472 13.058C60.3192 12.75 60.7812 12.288 61.1332 11.672C61.4852 11.056 61.6612 10.308 61.6612 9.428C61.6612 8.548 61.4925 7.80733 61.1552 7.206C60.8178 6.59 60.3705 6.128 59.8132 5.82C59.2558 5.512 58.6545 5.358 58.0092 5.358C57.3638 5.358 56.7625 5.512 56.2052 5.82C55.6625 6.128 55.2298 6.59 54.9072 7.206C54.5845 7.80733 54.4232 8.548 54.4232 9.428C54.4232 10.7333 54.7532 11.7453 55.4132 12.464C56.0878 13.168 56.9312 13.52 57.9432 13.52ZM81.4273 0.209999V2.256H74.9373V6.766H79.9973V8.812H74.9373V15.5H72.4293V0.209999H81.4273ZM86.2596 5.138C86.6262 4.522 87.1102 4.04533 87.7116 3.708C88.3276 3.356 89.0536 3.18 89.8896 3.18V5.776H89.2516C88.2689 5.776 87.5209 6.02533 87.0076 6.524C86.5089 7.02267 86.2596 7.888 86.2596 9.12V15.5H83.7516V3.378H86.2596V5.138ZM97.4529 15.698C96.3089 15.698 95.2749 15.4413 94.3509 14.928C93.4269 14.4 92.7009 13.6667 92.1729 12.728C91.6449 11.7747 91.3809 10.6747 91.3809 9.428C91.3809 8.196 91.6523 7.10333 92.1949 6.15C92.7376 5.19667 93.4783 4.46333 94.4169 3.95C95.3556 3.43667 96.4043 3.18 97.5629 3.18C98.7216 3.18 99.7703 3.43667 100.709 3.95C101.648 4.46333 102.388 5.19667 102.931 6.15C103.474 7.10333 103.745 8.196 103.745 9.428C103.745 10.66 103.466 11.7527 102.909 12.706C102.352 13.6593 101.589 14.4 100.621 14.928C99.6676 15.4413 98.6116 15.698 97.4529 15.698ZM97.4529 13.52C98.0983 13.52 98.6996 13.366 99.2569 13.058C99.8289 12.75 100.291 12.288 100.643 11.672C100.995 11.056 101.171 10.308 101.171 9.428C101.171 8.548 101.002 7.80733 100.665 7.206C100.328 6.59 99.8803 6.128 99.3229 5.82C98.7656 5.512 98.1643 5.358 97.5189 5.358C96.8736 5.358 96.2723 5.512 95.7149 5.82C95.1723 6.128 94.7396 6.59 94.4169 7.206C94.0943 7.80733 93.9329 8.548 93.9329 9.428C93.9329 10.7333 94.2629 11.7453 94.9229 12.464C95.5976 13.168 96.4409 13.52 97.4529 13.52ZM112.34 3.18C113.294 3.18 114.144 3.378 114.892 3.774C115.655 4.17 116.249 4.75667 116.674 5.534C117.1 6.31133 117.312 7.25 117.312 8.35V15.5H114.826V8.724C114.826 7.63867 114.555 6.81 114.012 6.238C113.47 5.65133 112.729 5.358 111.79 5.358C110.852 5.358 110.104 5.65133 109.546 6.238C109.004 6.81 108.732 7.63867 108.732 8.724V15.5H106.224V3.378H108.732V4.764C109.143 4.26533 109.664 3.87667 110.294 3.598C110.94 3.31933 111.622 3.18 112.34 3.18ZM123.437 5.424V12.134C123.437 12.5887 123.54 12.9187 123.745 13.124C123.965 13.3147 124.332 13.41 124.845 13.41H126.385V15.5H124.405C123.276 15.5 122.411 15.236 121.809 14.708C121.208 14.18 120.907 13.322 120.907 12.134V5.424H119.477V3.378H120.907V0.363999H123.437V3.378H126.385V5.424H123.437ZM127.861 9.384C127.861 8.16667 128.11 7.08867 128.609 6.15C129.122 5.21133 129.812 4.48533 130.677 3.972C131.557 3.444 132.525 3.18 133.581 3.18C134.534 3.18 135.363 3.37067 136.067 3.752C136.786 4.11867 137.358 4.58067 137.783 5.138V3.378H140.313V15.5H137.783V13.696C137.358 14.268 136.778 14.7447 136.045 15.126C135.312 15.5073 134.476 15.698 133.537 15.698C132.496 15.698 131.542 15.434 130.677 14.906C129.812 14.3633 129.122 13.6153 128.609 12.662C128.11 11.694 127.861 10.6013 127.861 9.384ZM137.783 9.428C137.783 8.592 137.607 7.866 137.255 7.25C136.918 6.634 136.47 6.16467 135.913 5.842C135.356 5.51933 134.754 5.358 134.109 5.358C133.464 5.358 132.862 5.51933 132.305 5.842C131.748 6.15 131.293 6.612 130.941 7.228C130.604 7.82933 130.435 8.548 130.435 9.384C130.435 10.22 130.604 10.9533 130.941 11.584C131.293 12.2147 131.748 12.6987 132.305 13.036C132.877 13.3587 133.478 13.52 134.109 13.52C134.754 13.52 135.356 13.3587 135.913 13.036C136.47 12.7133 136.918 12.244 137.255 11.628C137.607 10.9973 137.783 10.264 137.783 9.428ZM146.115 5.16C146.54 4.60267 147.12 4.13333 147.853 3.752C148.586 3.37067 149.415 3.18 150.339 3.18C151.395 3.18 152.356 3.444 153.221 3.972C154.101 4.48533 154.79 5.21133 155.289 6.15C155.788 7.08867 156.037 8.16667 156.037 9.384C156.037 10.6013 155.788 11.694 155.289 12.662C154.79 13.6153 154.101 14.3633 153.221 14.906C152.356 15.434 151.395 15.698 150.339 15.698C149.415 15.698 148.594 15.5147 147.875 15.148C147.156 14.7667 146.57 14.2973 146.115 13.74V21.264H143.607V3.378H146.115V5.16ZM153.485 9.384C153.485 8.548 153.309 7.82933 152.957 7.228C152.62 6.612 152.165 6.15 151.593 5.842C151.036 5.51933 150.434 5.358 149.789 5.358C149.158 5.358 148.557 5.51933 147.985 5.842C147.428 6.16467 146.973 6.634 146.621 7.25C146.284 7.866 146.115 8.592 146.115 9.428C146.115 10.264 146.284 10.9973 146.621 11.628C146.973 12.244 147.428 12.7133 147.985 13.036C148.557 13.3587 149.158 13.52 149.789 13.52C150.434 13.52 151.036 13.3587 151.593 13.036C152.165 12.6987 152.62 12.2147 152.957 11.584C153.309 10.9533 153.485 10.22 153.485 9.384ZM161.025 5.16C161.451 4.60267 162.03 4.13333 162.763 3.752C163.497 3.37067 164.325 3.18 165.249 3.18C166.305 3.18 167.266 3.444 168.131 3.972C169.011 4.48533 169.701 5.21133 170.199 6.15C170.698 7.08867 170.947 8.16667 170.947 9.384C170.947 10.6013 170.698 11.694 170.199 12.662C169.701 13.6153 169.011 14.3633 168.131 14.906C167.266 15.434 166.305 15.698 165.249 15.698C164.325 15.698 163.504 15.5147 162.785 15.148C162.067 14.7667 161.48 14.2973 161.025 13.74V21.264H158.517V3.378H161.025V5.16ZM168.395 9.384C168.395 8.548 168.219 7.82933 167.867 7.228C167.53 6.612 167.075 6.15 166.503 5.842C165.946 5.51933 165.345 5.358 164.699 5.358C164.069 5.358 163.467 5.51933 162.895 5.842C162.338 6.16467 161.883 6.634 161.531 7.25C161.194 7.866 161.025 8.592 161.025 9.428C161.025 10.264 161.194 10.9973 161.531 11.628C161.883 12.244 162.338 12.7133 162.895 13.036C163.467 13.3587 164.069 13.52 164.699 13.52C165.345 13.52 165.946 13.3587 166.503 13.036C167.075 12.6987 167.53 12.2147 167.867 11.584C168.219 10.9533 168.395 10.22 168.395 9.384Z" fill="black"/>
</svg>
